<?xml version="1.0" standalone="no"?>
<!DOCTYPE svg PUBLIC "-//W3C//DTD SVG 20010904//EN"
 "http://www.w3.org/TR/2001/REC-SVG-20010904/DTD/svg10.dtd">
<svg version="1.0" xmlns="http://www.w3.org/2000/svg"
 width="512.000000pt" height="512.000000pt" viewBox="0 0 512.000000 512.000000"
 preserveAspectRatio="xMidYMid meet">
<metadata>
Created by potrace 1.14, written by Peter Selinger 2001-2017
</metadata>
<g transform="translate(0.000000,512.000000) scale(0.100000,-0.100000)"
fill="#000000" stroke="none">
<path d="M455 5113 c-73 -9 -134 -26 -185 -51 -73 -36 -179 -141 -214 -215
-57 -118 -55 -39 -53 -2317 2 -1152 6 -2111 10 -2130 23 -104 69 -190 139
-256 80 -77 164 -119 268 -132 30 -4 1005 -7 2165 -7 1986 0 2114 1 2174 18
126 35 245 132 304 249 58 115 56 34 54 2328 -2 1990 -3 2108 -20 2165 -39
129 -130 237 -259 306 -22 12 -61 23 -123 36 -32 7 -4208 13 -4260 6z"/>
</g>
</svg>
